<svg id="kity_svg_6" xmlns="http://www.w3.org/2000/svg" xmlns:xlink="http://www.w3.org/1999/xlink" version="1.1" width="636" height="404" style="background: rgb(251, 251, 251); visibility: visible;" viewBox="0 0 636 404"><defs id="kity_defs_7"><linearGradient id="kity_linearGradient_17" x1="0" y1="0" x2="0" y2="1"><stop id="kity_stop_18" offset="0" stop-color="rgb(255, 255, 255)"></stop><stop id="kity_stop_19" offset="1" stop-color="rgb(204, 204, 204)"></stop></linearGradient><marker id="kity_marker_2" orient="auto" refX="6" refY="0" viewBox="-7 -7 14 14" markerWidth="7" markerHeight="7" markerUnits="userSpaceOnUse"><path id="kity_path_3" fill="rgb(115, 191, 118)" stroke="none" d="M6,0A6,6,0,1,1,-6,0A6,6,0,1,1,6,0"></path></marker></defs><g id="kity_g_8"><g id="minder1" text-rendering="optimize-speed"><g id="minder_connect_group1"><path id="kity_path_31" fill="none" stroke="rgb(115, 191, 118)" stroke-width="1" d="M72.5,150.5A68,108,0,0,1,140.5,42.5"></path><path id="kity_path_39" fill="none" stroke="rgb(115, 191, 118)" stroke-width="1" d="M72.5,150.5A68,108,0,0,0,140.5,258.5"></path><path id="kity_path_63" fill="none" stroke="rgb(115, 191, 118)" stroke-width="1" d="M247.5,258.5C255.5,258.5,255.5,141.5,263.5,141.5"></path><path id="kity_path_71" fill="none" stroke="rgb(115, 191, 118)" stroke-width="1" d="M377.5,141.5C385.5,141.5,385.5,89.5,393.5,89.5"></path><path id="kity_path_79" fill="none" stroke="rgb(115, 191, 118)" stroke-width="1" d="M215.5,42.5C223.5,42.5,223.5,29.5,231.5,29.5"></path><path id="kity_path_87" fill="none" stroke="rgb(115, 191, 118)" stroke-width="1" d="M215.5,42.5C223.5,42.5,223.5,55.5,231.5,55.5"></path><path id="kity_path_95" fill="none" stroke="rgb(115, 191, 118)" stroke-width="1" d="M377.5,141.5C385.5,141.5,385.5,115.5,393.5,115.5"></path><path id="kity_path_103" fill="none" stroke="rgb(115, 191, 118)" stroke-width="1" d="M377.5,141.5C385.5,141.5,385.5,141.5,393.5,141.5"></path><path id="kity_path_119" fill="none" stroke="rgb(115, 191, 118)" stroke-width="1" d="M377.5,141.5C385.5,141.5,385.5,167.5,393.5,167.5"></path><path id="kity_path_127" fill="none" stroke="rgb(115, 191, 118)" stroke-width="1" d="M377.5,141.5C385.5,141.5,385.5,193.5,393.5,193.5"></path><path id="kity_path_143" fill="none" stroke="rgb(115, 191, 118)" stroke-width="1" d="M247.5,258.5C255.5,258.5,255.5,258.5,263.5,258.5"></path><path id="kity_path_159" fill="none" stroke="rgb(115, 191, 118)" stroke-width="1" d="M443.5,258.5C451.5,258.5,451.5,219.5,459.5,219.5"></path><path id="kity_path_175" fill="none" stroke="rgb(115, 191, 118)" stroke-width="1" d="M443.5,258.5C451.5,258.5,451.5,245.5,459.5,245.5"></path><path id="kity_path_183" fill="none" stroke="rgb(115, 191, 118)" stroke-width="1" d="M443.5,258.5C451.5,258.5,451.5,271.5,459.5,271.5"></path><path id="kity_path_191" fill="none" stroke="rgb(115, 191, 118)" stroke-width="1" d="M443.5,258.5C451.5,258.5,451.5,297.5,459.5,297.5"></path><path id="kity_path_207" fill="none" stroke="rgb(115, 191, 118)" stroke-width="1" d="M247.5,258.5C255.5,258.5,255.5,375.5,263.5,375.5"></path><path id="kity_path_215" fill="none" stroke="rgb(115, 191, 118)" stroke-width="1" d="M247.5,258.5C255.5,258.5,255.5,336.5,263.5,336.5"></path><path id="kity_path_223" fill="none" stroke="rgb(115, 191, 118)" stroke-width="1" d="M342.5,336.5C350.5,336.5,350.5,323.5,358.5,323.5"></path><path id="kity_path_231" fill="none" stroke="rgb(115, 191, 118)" stroke-width="1" d="M342.5,336.5C350.5,336.5,350.5,349.5,358.5,349.5"></path></g><g id="minder_node1"><path id="node_outline1" fill="rgb(115, 191, 118)" stroke="rgb(115, 191, 118)" d="M25.5,136.5h94a5,5,0,0,1,5,5v18a5,5,0,0,1,-5,5h-94a5,5,0,0,1,-5,-5v-18a5,5,0,0,1,5,-5z" stroke-width="3"></path><g id="node_text1" fill="white"><text id="kity_text_22" text-rendering="inherit" font-size="16" dy=".8em" y="140.09999990463257" x="32.5">Throwable</text></g></g><g id="kity_g_12"><path id="kity_path_13" fill="none" stroke="none" d="M32.5,150.5h0v0h0z"></path></g><g id="kity_g_14"><path id="kity_path_15" fill="none" stroke="none" d="M32.5,150.5h0v0h0z"></path><path id="kity_path_16" fill="none" stroke="none"></path></g><g id="minder_node2"><g id="node_expander1" style="cursor: pointer;"><path id="kity_path_36" fill="white" stroke="gray" d="M141.5,42.5A6,6,0,1,1,129.5,42.5A6,6,0,1,1,141.5,42.5"></path><path id="kity_path_37" fill="none" stroke="gray" d="M131,42.5L140,42.5"></path></g><path id="node_outline2" fill="#ffc000" stroke="rgb(115, 191, 118)" d="M145.5,29.5h67a3,3,0,0,1,3,3v20a3,3,0,0,1,-3,3h-67a3,3,0,0,1,-3,-3v-20a3,3,0,0,1,3,-3z" stroke-width="1"></path><g id="node_text2" fill="black"><text id="kity_text_33" text-rendering="inherit" font-size="14" dy=".8em" y="33.40000009536743" x="162.5">Error</text></g></g><g id="minder_node3"><g id="node_expander2" style="cursor: pointer;"><path id="kity_path_44" fill="white" stroke="gray" d="M141.5,258.5A6,6,0,1,1,129.5,258.5A6,6,0,1,1,141.5,258.5"></path><path id="kity_path_45" fill="none" stroke="gray" d="M131,258.5L140,258.5"></path></g><path id="node_outline3" fill="rgb(238, 246, 238)" stroke="rgb(115, 191, 118)" d="M145.5,245.5h99a3,3,0,0,1,3,3v20a3,3,0,0,1,-3,3h-99a3,3,0,0,1,-3,-3v-20a3,3,0,0,1,3,-3z" stroke-width="1"></path><g id="node_text3" fill="black"><text id="kity_text_41" text-rendering="inherit" font-size="14" dy=".8em" y="249.40000009536743" x="162.5">Exception</text></g></g><g id="minder_node6"><g id="node_expander5" style="cursor: pointer;"><path id="kity_path_68" fill="white" stroke="gray" d="M263.5,141.5A6,6,0,1,1,251.5,141.5A6,6,0,1,1,263.5,141.5"></path><path id="kity_path_69" fill="none" stroke="gray" d="M253,141.5L262,141.5"></path></g><path id="node_outline6" fill="#ffc000" stroke="none" d="M268.5,132.5h104a5,5,0,0,1,5,5v8a5,5,0,0,1,-5,5h-104a5,5,0,0,1,-5,-5v-8a5,5,0,0,1,5,-5z" stroke-width="3"></path><g id="node_text6" fill="black"><text id="kity_text_65" text-rendering="inherit" font-size="12" dy=".8em" y="133.70000004768372" x="268.5">RuntimeException</text></g></g><g id="minder_node7"><g id="node_expander6" style="cursor: pointer;" display="none"><path id="kity_path_76" fill="white" stroke="gray" d="M393.5,89.5A6,6,0,1,1,381.5,89.5A6,6,0,1,1,393.5,89.5"></path><path id="kity_path_77" fill="none" stroke="gray"></path></g><path id="node_outline7" fill="#ffc000" stroke="none" d="M398.5,80.5h161a5,5,0,0,1,5,5v8a5,5,0,0,1,-5,5h-161a5,5,0,0,1,-5,-5v-8a5,5,0,0,1,5,-5z" stroke-width="3"></path><g id="node_text7" fill="black"><text id="kity_text_73" text-rendering="inherit" font-size="12" dy=".8em" y="81.70000004768372" x="398.5">IndexOutOfBoundException</text></g></g><g id="minder_node8"><g id="node_expander7" style="cursor: pointer;" display="none"><path id="kity_path_84" fill="white" stroke="gray" d="M231.5,29.5A6,6,0,1,1,219.5,29.5A6,6,0,1,1,231.5,29.5"></path><path id="kity_path_85" fill="none" stroke="gray"></path></g><path id="node_outline8" fill="#ffc000" stroke="none" d="M236.5,20.5h56a5,5,0,0,1,5,5v8a5,5,0,0,1,-5,5h-56a5,5,0,0,1,-5,-5v-8a5,5,0,0,1,5,-5z" stroke-width="3"></path><g id="node_text8" fill="black"><text id="kity_text_81" text-rendering="inherit" font-size="12" dy=".8em" y="21.700000047683716" x="236.5">AWTError</text></g></g><g id="minder_node9"><g id="node_expander8" style="cursor: pointer;" display="none"><path id="kity_path_92" fill="white" stroke="gray" d="M231.5,55.5A6,6,0,1,1,219.5,55.5A6,6,0,1,1,231.5,55.5"></path><path id="kity_path_93" fill="none" stroke="gray"></path></g><path id="node_outline9" fill="#ffc000" stroke="none" d="M236.5,46.5h116a5,5,0,0,1,5,5v8a5,5,0,0,1,-5,5h-116a5,5,0,0,1,-5,-5v-8a5,5,0,0,1,5,-5z" stroke-width="3"></path><g id="node_text9" fill="black"><text id="kity_text_89" text-rendering="inherit" font-size="12" dy=".8em" y="47.700000047683716" x="236.5">VirtualMachineError</text></g></g><g id="minder_node10"><g id="node_expander9" style="cursor: pointer;" display="none"><path id="kity_path_100" fill="white" stroke="gray" d="M393.5,115.5A6,6,0,1,1,381.5,115.5A6,6,0,1,1,393.5,115.5"></path><path id="kity_path_101" fill="none" stroke="gray"></path></g><path id="node_outline10" fill="#ffc000" stroke="none" d="M398.5,106.5h116a5,5,0,0,1,5,5v8a5,5,0,0,1,-5,5h-116a5,5,0,0,1,-5,-5v-8a5,5,0,0,1,5,-5z" stroke-width="3"></path><g id="node_text10" fill="black"><text id="kity_text_97" text-rendering="inherit" font-size="12" dy=".8em" y="107.70000004768372" x="398.5">ArithmeticException</text></g></g><g id="minder_node11"><g id="node_expander10" style="cursor: pointer;" display="none"><path id="kity_path_108" fill="white" stroke="gray" d="M393.5,141.5A6,6,0,1,1,381.5,141.5A6,6,0,1,1,393.5,141.5"></path><path id="kity_path_109" fill="none" stroke="gray" d="M383,141.5L392,141.5"></path></g><path id="node_outline11" fill="#ffc000" stroke="none" d="M398.5,132.5h110a5,5,0,0,1,5,5v8a5,5,0,0,1,-5,5h-110a5,5,0,0,1,-5,-5v-8a5,5,0,0,1,5,-5z" stroke-width="3"></path><g id="node_text11" fill="black"><text id="kity_text_105" text-rendering="inherit" font-size="12" dy=".8em" y="133.70000004768372" x="398.5">ClassCastException</text></g></g><g id="minder_node13"><g id="node_expander12" style="cursor: pointer;" display="none"><path id="kity_path_124" fill="white" stroke="gray" d="M393.5,167.5A6,6,0,1,1,381.5,167.5A6,6,0,1,1,393.5,167.5"></path><path id="kity_path_125" fill="none" stroke="gray"></path></g><path id="node_outline13" fill="#ffc000" stroke="none" d="M398.5,158.5h121a5,5,0,0,1,5,5v8a5,5,0,0,1,-5,5h-121a5,5,0,0,1,-5,-5v-8a5,5,0,0,1,5,-5z" stroke-width="3"></path><g id="node_text13" fill="black"><text id="kity_text_121" text-rendering="inherit" font-size="12" dy=".8em" y="159.70000004768372" x="398.5">NullPointerException</text></g></g><g id="minder_node14"><g id="node_expander13" style="cursor: pointer;" display="none"><path id="kity_path_132" fill="white" stroke="gray" d="M393.5,193.5A6,6,0,1,1,381.5,193.5A6,6,0,1,1,393.5,193.5"></path><path id="kity_path_133" fill="none" stroke="gray"></path></g><path id="node_outline14" fill="#ffc000" stroke="none" d="M398.5,184.5h148a5,5,0,0,1,5,5v8a5,5,0,0,1,-5,5h-148a5,5,0,0,1,-5,-5v-8a5,5,0,0,1,5,-5z" stroke-width="3"></path><g id="node_text14" fill="black"><text id="kity_text_129" text-rendering="inherit" font-size="12" dy=".8em" y="185.70000004768372" x="398.5">IllegalArgumentException</text></g></g><g id="minder_node16"><g id="node_expander15" style="cursor: pointer;"><path id="kity_path_148" fill="white" stroke="gray" d="M263.5,258.5A6,6,0,1,1,251.5,258.5A6,6,0,1,1,263.5,258.5"></path><path id="kity_path_149" fill="none" stroke="gray" d="M253,258.5L262,258.5"></path></g><path id="node_outline16" fill="none" stroke="none" d="M268.5,249.5h170a5,5,0,0,1,5,5v8a5,5,0,0,1,-5,5h-170a5,5,0,0,1,-5,-5v-8a5,5,0,0,1,5,-5z" stroke-width="3"></path><g id="node_text16" fill="black"><text id="kity_text_145" text-rendering="inherit" font-size="12" dy=".8em" y="250.70000004768372" x="268.5">ReflectiveOperationException</text></g></g><g id="minder_node18"><g id="node_expander17" style="cursor: pointer;" display="none"><path id="kity_path_164" fill="white" stroke="gray" d="M459.5,219.5A6,6,0,1,1,447.5,219.5A6,6,0,1,1,459.5,219.5"></path><path id="kity_path_165" fill="none" stroke="gray" d="M449,219.5L458,219.5"></path></g><path id="node_outline18" fill="none" stroke="none" d="M464.5,210.5h143a5,5,0,0,1,5,5v8a5,5,0,0,1,-5,5h-143a5,5,0,0,1,-5,-5v-8a5,5,0,0,1,5,-5z" stroke-width="3"></path><g id="node_text18" fill="black"><text id="kity_text_161" text-rendering="inherit" font-size="12" dy=".8em" y="211.70000004768372" x="464.5">ClassNotFoundException</text></g></g><g id="minder_node20"><g id="node_expander19" style="cursor: pointer;" display="none"><path id="kity_path_180" fill="white" stroke="gray" d="M459.5,245.5A6,6,0,1,1,447.5,245.5A6,6,0,1,1,459.5,245.5"></path><path id="kity_path_181" fill="none" stroke="gray"></path></g><path id="node_outline20" fill="none" stroke="none" d="M464.5,236.5h128a5,5,0,0,1,5,5v8a5,5,0,0,1,-5,5h-128a5,5,0,0,1,-5,-5v-8a5,5,0,0,1,5,-5z" stroke-width="3"></path><g id="node_text20" fill="black"><text id="kity_text_177" text-rendering="inherit" font-size="12" dy=".8em" y="237.70000004768372" x="464.5">IllegalAccessException</text></g></g><g id="minder_node21"><g id="node_expander20" style="cursor: pointer;" display="none"><path id="kity_path_188" fill="white" stroke="gray" d="M459.5,271.5A6,6,0,1,1,447.5,271.5A6,6,0,1,1,459.5,271.5"></path><path id="kity_path_189" fill="none" stroke="gray"></path></g><path id="node_outline21" fill="none" stroke="none" d="M464.5,262.5h128a5,5,0,0,1,5,5v8a5,5,0,0,1,-5,5h-128a5,5,0,0,1,-5,-5v-8a5,5,0,0,1,5,-5z" stroke-width="3"></path><g id="node_text21" fill="black"><text id="kity_text_185" text-rendering="inherit" font-size="12" dy=".8em" y="263.7000000476837" x="464.5">NoSuchFieldException</text></g></g><g id="minder_node22"><g id="node_expander21" style="cursor: pointer;" display="none"><path id="kity_path_196" fill="white" stroke="gray" d="M459.5,297.5A6,6,0,1,1,447.5,297.5A6,6,0,1,1,459.5,297.5"></path><path id="kity_path_197" fill="none" stroke="gray" d="M449,297.5L458,297.5"></path></g><path id="node_outline22" fill="none" stroke="none" d="M464.5,288.5h147a5,5,0,0,1,5,5v8a5,5,0,0,1,-5,5h-147a5,5,0,0,1,-5,-5v-8a5,5,0,0,1,5,-5z" stroke-width="3"></path><g id="node_text22" fill="black"><text id="kity_text_193" text-rendering="inherit" font-size="12" dy=".8em" y="289.7000000476837" x="464.5">NoSuchMethodException</text></g></g><g id="minder_node24"><g id="node_expander23" style="cursor: pointer;" display="none"><path id="kity_path_212" fill="white" stroke="gray" d="M263.5,375.5A6,6,0,1,1,251.5,375.5A6,6,0,1,1,263.5,375.5"></path><path id="kity_path_213" fill="none" stroke="gray"></path></g><path id="node_outline24" fill="none" stroke="none" d="M268.5,366.5h24a5,5,0,0,1,5,5v8a5,5,0,0,1,-5,5h-24a5,5,0,0,1,-5,-5v-8a5,5,0,0,1,5,-5z" stroke-width="3"></path><g id="node_text24" fill="black"><text id="kity_text_209" text-rendering="inherit" font-size="12" dy=".8em" y="367.7000000476837" x="268.5">更多</text></g></g><g id="minder_node25"><g id="node_expander24" style="cursor: pointer;"><path id="kity_path_220" fill="white" stroke="gray" d="M263.5,336.5A6,6,0,1,1,251.5,336.5A6,6,0,1,1,263.5,336.5"></path><path id="kity_path_221" fill="none" stroke="gray" d="M253,336.5L262,336.5"></path></g><path id="node_outline25" fill="none" stroke="none" d="M268.5,327.5h69a5,5,0,0,1,5,5v8a5,5,0,0,1,-5,5h-69a5,5,0,0,1,-5,-5v-8a5,5,0,0,1,5,-5z" stroke-width="3"></path><g id="node_text25" fill="black"><text id="kity_text_217" text-rendering="inherit" font-size="12" dy=".8em" y="328.7000000476837" x="268.5">IOException</text></g></g><g id="minder_node26"><g id="node_expander25" style="cursor: pointer;" display="none"><path id="kity_path_228" fill="white" stroke="gray" d="M358.5,323.5A6,6,0,1,1,346.5,323.5A6,6,0,1,1,358.5,323.5"></path><path id="kity_path_229" fill="none" stroke="gray"></path></g><path id="node_outline26" fill="none" stroke="none" d="M363.5,314.5h79a5,5,0,0,1,5,5v8a5,5,0,0,1,-5,5h-79a5,5,0,0,1,-5,-5v-8a5,5,0,0,1,5,-5z" stroke-width="3"></path><g id="node_text26" fill="black"><text id="kity_text_225" text-rendering="inherit" font-size="12" dy=".8em" y="315.7000000476837" x="363.5">EOFException</text></g></g><g id="minder_node27"><g id="node_expander26" style="cursor: pointer;" display="none"><path id="kity_path_236" fill="white" stroke="gray" d="M358.5,349.5A6,6,0,1,1,346.5,349.5A6,6,0,1,1,358.5,349.5"></path><path id="kity_path_237" fill="none" stroke="gray"></path></g><path id="node_outline27" fill="none" stroke="none" d="M363.5,340.5h134a5,5,0,0,1,5,5v8a5,5,0,0,1,-5,5h-134a5,5,0,0,1,-5,-5v-8a5,5,0,0,1,5,-5z" stroke-width="3"></path><g id="node_text27" fill="black"><text id="kity_text_233" text-rendering="inherit" font-size="12" dy=".8em" y="341.7000000476837" x="363.5">FileNotFoundException</text></g></g></g></g></svg>