<svg version="1.1" xmlns="http://www.w3.org/2000/svg" xmlns:xlink="http://www.w3.org/1999/xlink" width="534" height="187"><defs/><g><g transform="translate(-198,-422) scale(1,1)"><path fill="#C0C0C0" stroke="none" d="M 225 439 L 317 439 Q 327 439 327 449 L 327 484 Q 327 494 317 494 L 225 494 Q 215 494 215 484 L 215 449 Q 215 439 225 439 Z" opacity="0.2"/></g><g transform="translate(-198,-422) scale(1,1)"><path fill="#00ffd4" stroke="none" d="M 218 432 L 310 432 Q 320 432 320 442 L 320 477 Q 320 487 310 487 L 218 487 Q 208 487 208 477 L 208 442 Q 208 432 218 432 Z"/></g><g transform="translate(-198,-422) scale(1,1)"><path fill="none" stroke="#000000" d="M 218 432 L 310 432 Q 320 432 320 442 L 320 477 Q 320 487 310 487 L 218 487 Q 208 487 208 477 L 208 442 Q 208 432 218 432 Z" stroke-miterlimit="10"/></g><g transform="translate(-198,-422) scale(1,1)"><path fill="none" stroke="#000000" d="M 208 455 L 320 455" stroke-miterlimit="10"/></g><g transform="translate(-198,-422) scale(1,1)"><g><path fill="none" stroke="none"/><text fill="#000000" stroke="none" font-family="Arial" font-size="13px" font-style="normal" font-weight="normal" text-decoration="none" x="238" y="476.5">问句分析</text></g></g><g transform="translate(-198,-422) scale(1,1)"><g><path fill="none" stroke="none"/><text fill="#000000" stroke="none" font-family="Arial" font-size="13px" font-style="normal" font-weight="normal" text-decoration="none" x="264" y="449.5"></text></g></g><g transform="translate(-198,-422) scale(1,1)"><path fill="#C0C0C0" stroke="none" d="M 433 439 L 525 439 Q 535 439 535 449 L 535 484 Q 535 494 525 494 L 433 494 Q 423 494 423 484 L 423 449 Q 423 439 433 439 Z" opacity="0.2"/></g><g transform="translate(-198,-422) scale(1,1)"><path fill="#ffffff" stroke="none" d="M 426 432 L 518 432 Q 528 432 528 442 L 528 477 Q 528 487 518 487 L 426 487 Q 416 487 416 477 L 416 442 Q 416 432 426 432 Z"/></g><g transform="translate(-198,-422) scale(1,1)"><path fill="none" stroke="#000000" d="M 426 432 L 518 432 Q 528 432 528 442 L 528 477 Q 528 487 518 487 L 426 487 Q 416 487 416 477 L 416 442 Q 416 432 426 432 Z" stroke-miterlimit="10"/></g><g transform="translate(-198,-422) scale(1,1)"><path fill="none" stroke="#000000" d="M 416 455 L 528 455" stroke-miterlimit="10"/></g><g transform="translate(-198,-422) scale(1,1)"><g><path fill="none" stroke="none"/><text fill="#000000" stroke="none" font-family="Arial" font-size="13px" font-style="normal" font-weight="normal" text-decoration="none" x="446" y="476.5">查询生成</text></g></g><g transform="translate(-198,-422) scale(1,1)"><g><path fill="none" stroke="none"/><text fill="#000000" stroke="none" font-family="Arial" font-size="13px" font-style="normal" font-weight="normal" text-decoration="none" x="472" y="449.5"></text></g></g><g transform="translate(-198,-422) scale(1,1)"><path fill="#C0C0C0" stroke="none" d="M 625 439 L 717 439 Q 727 439 727 449 L 727 484 Q 727 494 717 494 L 625 494 Q 615 494 615 484 L 615 449 Q 615 439 625 439 Z" opacity="0.2"/></g><g transform="translate(-198,-422) scale(1,1)"><path fill="#ffffff" stroke="none" d="M 618 432 L 710 432 Q 720 432 720 442 L 720 477 Q 720 487 710 487 L 618 487 Q 608 487 608 477 L 608 442 Q 608 432 618 432 Z"/></g><g transform="translate(-198,-422) scale(1,1)"><path fill="none" stroke="#000000" d="M 618 432 L 710 432 Q 720 432 720 442 L 720 477 Q 720 487 710 487 L 618 487 Q 608 487 608 477 L 608 442 Q 608 432 618 432 Z" stroke-miterlimit="10"/></g><g transform="translate(-198,-422) scale(1,1)"><path fill="none" stroke="#000000" d="M 608 455 L 720 455" stroke-miterlimit="10"/></g><g transform="translate(-198,-422) scale(1,1)"><g><path fill="none" stroke="none"/><text fill="#000000" stroke="none" font-family="Arial" font-size="13px" font-style="normal" font-weight="normal" text-decoration="none" x="651" y="476.5">查询</text></g></g><g transform="translate(-198,-422) scale(1,1)"><g><path fill="none" stroke="none"/><text fill="#000000" stroke="none" font-family="Arial" font-size="13px" font-style="normal" font-weight="normal" text-decoration="none" x="664" y="449.5"></text></g></g><g transform="translate(-198,-422) scale(1,1)"><path fill="#C0C0C0" stroke="none" d="M 625 551 L 717 551 Q 727 551 727 561 L 727 596 Q 727 606 717 606 L 625 606 Q 615 606 615 596 L 615 561 Q 615 551 625 551 Z" opacity="0.2"/></g><g transform="translate(-198,-422) scale(1,1)"><path fill="#00ffd4" stroke="none" d="M 618 544 L 710 544 Q 720 544 720 554 L 720 589 Q 720 599 710 599 L 618 599 Q 608 599 608 589 L 608 554 Q 608 544 618 544 Z"/></g><g transform="translate(-198,-422) scale(1,1)"><path fill="none" stroke="#000000" d="M 618 544 L 710 544 Q 720 544 720 554 L 720 589 Q 720 599 710 599 L 618 599 Q 608 599 608 589 L 608 554 Q 608 544 618 544 Z" stroke-miterlimit="10"/></g><g transform="translate(-198,-422) scale(1,1)"><path fill="none" stroke="#000000" d="M 608 567 L 720 567" stroke-miterlimit="10"/></g><g transform="translate(-198,-422) scale(1,1)"><g><path fill="none" stroke="none"/><text fill="#000000" stroke="none" font-family="Arial" font-size="13px" font-style="normal" font-weight="normal" text-decoration="none" x="638" y="588.5">结果排序</text></g></g><g transform="translate(-198,-422) scale(1,1)"><g><path fill="none" stroke="none"/><text fill="#000000" stroke="none" font-family="Arial" font-size="13px" font-style="normal" font-weight="normal" text-decoration="none" x="664" y="561.5"></text></g></g><g transform="translate(-198,-422) scale(1,1)"><path fill="#C0C0C0" stroke="none" d="M 433 551 L 525 551 Q 535 551 535 561 L 535 596 Q 535 606 525 606 L 433 606 Q 423 606 423 596 L 423 561 Q 423 551 433 551 Z" opacity="0.2"/></g><g transform="translate(-198,-422) scale(1,1)"><path fill="#ffffff" stroke="none" d="M 426 544 L 518 544 Q 528 544 528 554 L 528 589 Q 528 599 518 599 L 426 599 Q 416 599 416 589 L 416 554 Q 416 544 426 544 Z"/></g><g transform="translate(-198,-422) scale(1,1)"><path fill="none" stroke="#000000" d="M 426 544 L 518 544 Q 528 544 528 554 L 528 589 Q 528 599 518 599 L 426 599 Q 416 599 416 589 L 416 554 Q 416 544 426 544 Z" stroke-miterlimit="10"/></g><g transform="translate(-198,-422) scale(1,1)"><path fill="none" stroke="#000000" d="M 416 567 L 528 567" stroke-miterlimit="10"/></g><g transform="translate(-198,-422) scale(1,1)"><g><path fill="none" stroke="none"/><text fill="#000000" stroke="none" font-family="Arial" font-size="13px" font-style="normal" font-weight="normal" text-decoration="none" x="446" y="588.5">答案生成</text></g></g><g transform="translate(-198,-422) scale(1,1)"><g><path fill="none" stroke="none"/><text fill="#000000" stroke="none" font-family="Arial" font-size="13px" font-style="normal" font-weight="normal" text-decoration="none" x="472" y="561.5"></text></g></g><g transform="translate(-198,-422) scale(1,1)"><path fill="none" stroke="#000000" d="M 320 456 L 416 456" stroke-miterlimit="10"/></g><g transform="translate(-198,-422) scale(1,1)"><path fill="#000000" stroke="none" d="M 405.83732514237585 460.209517756016 L 416 456 L 405.83732514237585 451.790482243984"/></g><g transform="translate(-198,-422) scale(1,1)"><path fill="none" stroke="#000000" d="M 405.83732514237585 460.209517756016 L 416 456 L 405.83732514237585 451.790482243984 L 405.83732514237585 460.209517756016" stroke-miterlimit="10"/></g><g transform="translate(-198,-422) scale(1,1)"><g><path fill="none" stroke="none"/><text fill="#000000" stroke="none" font-family="Arial" font-size="13px" font-style="normal" font-weight="normal" text-decoration="none" x="326.5" y="447.5">主题 And 约束</text></g></g><g transform="translate(-198,-422) scale(1,1)"><path fill="none" stroke="#000000" d="M 528 459 L 608 459" stroke-miterlimit="10"/></g><g transform="translate(-198,-422) scale(1,1)"><path fill="#000000" stroke="none" d="M 597.8373251423759 463.209517756016 L 608 459 L 597.8373251423758 454.790482243984"/></g><g transform="translate(-198,-422) scale(1,1)"><path fill="none" stroke="#000000" d="M 597.8373251423759 463.209517756016 L 608 459 L 597.8373251423758 454.790482243984 L 597.8373251423759 463.209517756016" stroke-miterlimit="10"/></g><g transform="translate(-198,-422) scale(1,1)"><g><path fill="none" stroke="none"/><text fill="#000000" stroke="none" font-family="Arial" font-size="13px" font-style="normal" font-weight="normal" text-decoration="none" x="534.5" y="450.5">Cypher语句</text></g></g><g transform="translate(-198,-422) scale(1,1)"><path fill="none" stroke="#000000" d="M 664 487 L 664 544" stroke-miterlimit="10"/></g><g transform="translate(-198,-422) scale(1,1)"><path fill="#000000" stroke="none" d="M 659.790482243984 533.8373251423759 L 664 544 L 668.209517756016 533.8373251423759"/></g><g transform="translate(-198,-422) scale(1,1)"><path fill="none" stroke="#000000" d="M 659.790482243984 533.8373251423759 L 664 544 L 668.209517756016 533.8373251423759 L 659.790482243984 533.8373251423759" stroke-miterlimit="10"/></g><g transform="translate(-198,-422) scale(1,1)"><g><path fill="none" stroke="none"/><text fill="#000000" stroke="none" font-family="Arial" font-size="13px" font-style="normal" font-weight="normal" text-decoration="none" x="670.5" y="516.5">查询结果</text></g></g><g transform="translate(-198,-422) scale(1,1)"><path fill="none" stroke="#000000" d="M 608 568 L 528 568" stroke-miterlimit="10"/></g><g transform="translate(-198,-422) scale(1,1)"><path fill="#000000" stroke="none" d="M 538.1626748576241 563.790482243984 L 528 568 L 538.1626748576241 572.209517756016"/></g><g transform="translate(-198,-422) scale(1,1)"><path fill="none" stroke="#000000" d="M 538.1626748576241 563.790482243984 L 528 568 L 538.1626748576241 572.209517756016 L 538.1626748576241 563.790482243984" stroke-miterlimit="10"/></g><g transform="translate(-198,-422) scale(1,1)"><g><path fill="none" stroke="none"/><text fill="#000000" stroke="none" font-family="Arial" font-size="13px" font-style="normal" font-weight="normal" text-decoration="none" x="534" y="589.5">排序的结果</text></g></g><g transform="translate(-198,-422) scale(1,1)"><path fill="none" stroke="#000000" d="M 320 459 L 368 459 M 368 459 A 8 8 0 0 1 376 467 L 376 547 M 376 547 A 8 8 0 0 0 384 555 L 416 555" stroke-miterlimit="10"/></g><g transform="translate(-198,-422) scale(1,1)"><path fill="#000000" stroke="none" d="M 405.83732514237585 559.209517756016 L 416 555 L 405.83732514237585 550.790482243984"/></g><g transform="translate(-198,-422) scale(1,1)"><path fill="none" stroke="#000000" d="M 405.83732514237585 559.209517756016 L 416 555 L 405.83732514237585 550.790482243984 L 405.83732514237585 559.209517756016" stroke-miterlimit="10"/></g><g transform="translate(-198,-422) scale(1,1)"><g><path fill="none" stroke="none"/><text fill="#000000" stroke="none" font-family="Arial" font-size="13px" font-style="normal" font-weight="normal" text-decoration="none" x="376.5" y="500.5">主题</text></g></g></g></svg>