<svg version="1.1" xmlns="http://www.w3.org/2000/svg" xmlns:xlink="http://www.w3.org/1999/xlink" width="700" height="329"><defs/><g><g transform="translate(-86,-182) scale(1,1)"><rect fill="#ffffff" stroke="none" x="96" y="192" width="224" height="32"/></g><g transform="translate(-86,-182) scale(1,1)"><path fill="none" stroke="#000000" d="M 96 192 L 320 192 L 320 224 L 96 224 L 96 192 Z Z" stroke-miterlimit="10"/></g><g transform="translate(-86,-182) scale(1,1)"><g><path fill="none" stroke="none"/><text fill="#000000" stroke="none" font-family="Arial" font-size="13px" font-style="normal" font-weight="normal" text-decoration="none" x="123.5" y="214.5">规则提取关键词，关系，主题</text></g></g><g transform="translate(-86,-182) scale(1,1)"><rect fill="#ffffff" stroke="none" x="96" y="240" width="224" height="32"/></g><g transform="translate(-86,-182) scale(1,1)"><path fill="none" stroke="#000000" d="M 96 240 L 320 240 L 320 272 L 96 272 L 96 240 Z Z" stroke-miterlimit="10"/></g><g transform="translate(-86,-182) scale(1,1)"><g><path fill="none" stroke="none"/><text fill="#000000" stroke="none" font-family="Arial" font-size="13px" font-style="normal" font-weight="normal" text-decoration="none" x="182" y="262.5">实体链接</text></g></g><g transform="translate(-86,-182) scale(1,1)"><rect fill="#ffffff" stroke="none" x="96" y="352" width="224" height="32"/></g><g transform="translate(-86,-182) scale(1,1)"><path fill="none" stroke="#000000" d="M 96 352 L 320 352 L 320 384 L 96 384 L 96 352 Z Z" stroke-miterlimit="10"/></g><g transform="translate(-86,-182) scale(1,1)"><g><path fill="none" stroke="none"/><text fill="#000000" stroke="none" font-family="Arial" font-size="13px" font-style="normal" font-weight="normal" text-decoration="none" x="130" y="374.5">分词，词性标注，依存分析</text></g></g><g transform="translate(-86,-182) scale(1,1)"><rect fill="#ffffff" stroke="none" x="96" y="400" width="224" height="32"/></g><g transform="translate(-86,-182) scale(1,1)"><path fill="none" stroke="#000000" d="M 96 400 L 320 400 L 320 432 L 96 432 L 96 400 Z Z" stroke-miterlimit="10"/></g><g transform="translate(-86,-182) scale(1,1)"><g><path fill="none" stroke="none"/><text fill="#000000" stroke="none" font-family="Arial" font-size="13px" font-style="normal" font-weight="normal" text-decoration="none" x="110.5" y="422.5">依存句法提取关键词，关系，主题</text></g></g><g transform="translate(-86,-182) scale(1,1)"><rect fill="#ffffff" stroke="none" x="96" y="448" width="224" height="32"/></g><g transform="translate(-86,-182) scale(1,1)"><path fill="none" stroke="#000000" d="M 96 448 L 320 448 L 320 480 L 96 480 L 96 448 Z Z" stroke-miterlimit="10"/></g><g transform="translate(-86,-182) scale(1,1)"><g><path fill="none" stroke="none"/><text fill="#000000" stroke="none" font-family="Arial" font-size="13px" font-style="normal" font-weight="normal" text-decoration="none" x="182" y="470.5">实体链接</text></g></g><g transform="translate(-86,-182) scale(1,1)"><rect fill="#ffffff" stroke="none" x="432" y="192" width="136" height="32"/></g><g transform="translate(-86,-182) scale(1,1)"><path fill="none" stroke="#000000" d="M 432 192 L 568 192 L 568 224 L 432 224 L 432 192 Z Z" stroke-miterlimit="10"/></g><g transform="translate(-86,-182) scale(1,1)"><g><path fill="none" stroke="none"/><text fill="#000000" stroke="none" font-family="Arial" font-size="13px" font-style="normal" font-weight="normal" text-decoration="none" x="454.5" y="214.5">升高或降低维度</text></g></g><g transform="translate(-86,-182) scale(1,1)"><path fill="none" stroke="#000000" d="M 208 224 L 208 240" stroke-miterlimit="10"/></g><g transform="translate(-86,-182) scale(1,1)"><path fill="#000000" stroke="none" d="M 203.790482243984 229.83732514237585 L 208 240 L 212.209517756016 229.83732514237585"/></g><g transform="translate(-86,-182) scale(1,1)"><path fill="none" stroke="#000000" d="M 203.790482243984 229.83732514237585 L 208 240 L 212.209517756016 229.83732514237585 L 203.790482243984 229.83732514237585" stroke-miterlimit="10"/></g><g transform="translate(-86,-182) scale(1,1)"><path fill="none" stroke="#000000" d="M 208 384 L 208 400" stroke-miterlimit="10"/></g><g transform="translate(-86,-182) scale(1,1)"><path fill="#000000" stroke="none" d="M 203.790482243984 389.83732514237585 L 208 400 L 212.209517756016 389.83732514237585"/></g><g transform="translate(-86,-182) scale(1,1)"><path fill="none" stroke="#000000" d="M 203.790482243984 389.83732514237585 L 208 400 L 212.209517756016 389.83732514237585 L 203.790482243984 389.83732514237585" stroke-miterlimit="10"/></g><g transform="translate(-86,-182) scale(1,1)"><path fill="none" stroke="#000000" d="M 208 432 L 208 448" stroke-miterlimit="10"/></g><g transform="translate(-86,-182) scale(1,1)"><path fill="#000000" stroke="none" d="M 203.790482243984 437.83732514237585 L 208 448 L 212.209517756016 437.83732514237585"/></g><g transform="translate(-86,-182) scale(1,1)"><path fill="none" stroke="#000000" d="M 203.790482243984 437.83732514237585 L 208 448 L 212.209517756016 437.83732514237585 L 203.790482243984 437.83732514237585" stroke-miterlimit="10"/></g><g transform="translate(-86,-182) scale(1,1)"><rect fill="#ffffff" stroke="none" x="432" y="256" width="136" height="32"/></g><g transform="translate(-86,-182) scale(1,1)"><path fill="none" stroke="#000000" d="M 432 256 L 568 256 L 568 288 L 432 288 L 432 256 Z Z" stroke-miterlimit="10"/></g><g transform="translate(-86,-182) scale(1,1)"><g><path fill="none" stroke="none"/><text fill="#000000" stroke="none" font-family="Arial" font-size="13px" font-style="normal" font-weight="normal" text-decoration="none" x="461" y="278.5">构建查询语句</text></g></g><g transform="translate(-86,-182) scale(1,1)"><path fill="none" stroke="#000000" d="M 496 224 L 496 256" stroke-miterlimit="10"/></g><g transform="translate(-86,-182) scale(1,1)"><path fill="#000000" stroke="none" d="M 491.790482243984 245.83732514237585 L 496 256 L 500.209517756016 245.83732514237585"/></g><g transform="translate(-86,-182) scale(1,1)"><path fill="none" stroke="#000000" d="M 491.790482243984 245.83732514237585 L 496 256 L 500.209517756016 245.83732514237585 L 491.790482243984 245.83732514237585" stroke-miterlimit="10"/></g><g transform="translate(-86,-182) scale(1,1)"><rect fill="#ffffff" stroke="none" x="640" y="192" width="136" height="32"/></g><g transform="translate(-86,-182) scale(1,1)"><path fill="none" stroke="#000000" d="M 640 192 L 776 192 L 776 224 L 640 224 L 640 192 Z Z" stroke-miterlimit="10"/></g><g transform="translate(-86,-182) scale(1,1)"><g><path fill="none" stroke="none"/><text fill="#000000" stroke="none" font-family="Arial" font-size="13px" font-style="normal" font-weight="normal" text-decoration="none" x="669" y="214.5">查询知识图谱</text></g></g><g transform="translate(-86,-182) scale(1,1)"><path fill="none" stroke="#000000" d="M 568 272 L 616 272 M 616 272 A 8 8 0 0 0 624 264 L 624 216 M 624 216 A 8 8 0 0 1 632 208 L 640 208" stroke-miterlimit="10"/></g><g transform="translate(-86,-182) scale(1,1)"><path fill="#000000" stroke="none" d="M 629.8373251423759 212.209517756016 L 640 208 L 629.8373251423758 203.790482243984"/></g><g transform="translate(-86,-182) scale(1,1)"><path fill="none" stroke="#000000" d="M 629.8373251423759 212.209517756016 L 640 208 L 629.8373251423758 203.790482243984 L 629.8373251423759 212.209517756016" stroke-miterlimit="10"/></g><g transform="translate(-86,-182) scale(1,1)"><g><path fill="none" stroke="none"/><text fill="#000000" stroke="none" font-family="Arial" font-size="13px" font-style="normal" font-weight="normal" text-decoration="none" x="575.5" y="245.5">Cypher语句</text></g></g><g transform="translate(-86,-182) scale(1,1)"><rect fill="#ffffff" stroke="none" x="640" y="368" width="136" height="32"/></g><g transform="translate(-86,-182) scale(1,1)"><path fill="none" stroke="#000000" d="M 640 368 L 776 368 L 776 400 L 640 400 L 640 368 Z Z" stroke-miterlimit="10"/></g><g transform="translate(-86,-182) scale(1,1)"><g><path fill="none" stroke="none"/><text fill="#000000" stroke="none" font-family="Arial" font-size="13px" font-style="normal" font-weight="normal" text-decoration="none" x="695" y="390.5">聚合</text></g></g><g transform="translate(-86,-182) scale(1,1)"><rect fill="#ffffff" stroke="none" x="432" y="464" width="136" height="32"/></g><g transform="translate(-86,-182) scale(1,1)"><path fill="none" stroke="#000000" d="M 432 464 L 568 464 L 568 496 L 432 496 L 432 464 Z Z" stroke-miterlimit="10"/></g><g transform="translate(-86,-182) scale(1,1)"><g><path fill="none" stroke="none"/><text fill="#000000" stroke="none" font-family="Arial" font-size="13px" font-style="normal" font-weight="normal" text-decoration="none" x="474" y="486.5">答案生成</text></g></g><g transform="translate(-86,-182) scale(1,1)"><path fill="none" stroke="#000000" d="M 704 224 L 704 368" stroke-miterlimit="10"/></g><g transform="translate(-86,-182) scale(1,1)"><path fill="#000000" stroke="none" d="M 699.790482243984 357.83732514237585 L 704 368 L 708.209517756016 357.83732514237585"/></g><g transform="translate(-86,-182) scale(1,1)"><path fill="none" stroke="#000000" d="M 699.790482243984 357.83732514237585 L 704 368 L 708.209517756016 357.83732514237585 L 699.790482243984 357.83732514237585" stroke-miterlimit="10"/></g><g transform="translate(-86,-182) scale(1,1)"><g><path fill="none" stroke="none"/><text fill="#000000" stroke="none" font-family="Arial" font-size="13px" font-style="normal" font-weight="normal" text-decoration="none" x="691.5" y="301.5">查询结果</text></g></g><g transform="translate(-86,-182) scale(1,1)"><path fill="none" stroke="#000000" d="M 640 480 L 568 480" stroke-miterlimit="10"/></g><g transform="translate(-86,-182) scale(1,1)"><path fill="#000000" stroke="none" d="M 578.1626748576241 475.790482243984 L 568 480 L 578.1626748576241 484.209517756016"/></g><g transform="translate(-86,-182) scale(1,1)"><path fill="none" stroke="#000000" d="M 578.1626748576241 475.790482243984 L 568 480 L 578.1626748576241 484.209517756016 L 578.1626748576241 475.790482243984" stroke-miterlimit="10"/></g><g transform="translate(-86,-182) scale(1,1)"><g><path fill="none" stroke="none"/><text fill="#000000" stroke="none" font-family="Arial" font-size="13px" font-style="normal" font-weight="normal" text-decoration="none" x="576.5" y="501.5">最终结果</text></g></g><g transform="translate(-86,-182) scale(1,1)"><rect fill="#ffffff" stroke="none" x="640" y="416" width="136" height="32"/></g><g transform="translate(-86,-182) scale(1,1)"><path fill="none" stroke="#000000" d="M 640 416 L 776 416 L 776 448 L 640 448 L 640 416 Z Z" stroke-miterlimit="10"/></g><g transform="translate(-86,-182) scale(1,1)"><g><path fill="none" stroke="none"/><text fill="#000000" stroke="none" font-family="Arial" font-size="13px" font-style="normal" font-weight="normal" text-decoration="none" x="695" y="438.5">去重</text></g></g><g transform="translate(-86,-182) scale(1,1)"><rect fill="#ffffff" stroke="none" x="640" y="464" width="136" height="32"/></g><g transform="translate(-86,-182) scale(1,1)"><path fill="none" stroke="#000000" d="M 640 464 L 776 464 L 776 496 L 640 496 L 640 464 Z Z" stroke-miterlimit="10"/></g><g transform="translate(-86,-182) scale(1,1)"><g><path fill="none" stroke="none"/><text fill="#000000" stroke="none" font-family="Arial" font-size="13px" font-style="normal" font-weight="normal" text-decoration="none" x="695" y="486.5">排序</text></g></g><g transform="translate(-86,-182) scale(1,1)"><path fill="none" stroke="#000000" d="M 708 400 L 708 416" stroke-miterlimit="10"/></g><g transform="translate(-86,-182) scale(1,1)"><path fill="#000000" stroke="none" d="M 703.790482243984 405.83732514237585 L 708 416 L 712.209517756016 405.83732514237585"/></g><g transform="translate(-86,-182) scale(1,1)"><path fill="none" stroke="#000000" d="M 703.790482243984 405.83732514237585 L 708 416 L 712.209517756016 405.83732514237585 L 703.790482243984 405.83732514237585" stroke-miterlimit="10"/></g><g transform="translate(-86,-182) scale(1,1)"><path fill="none" stroke="#000000" d="M 708 448 L 708 464" stroke-miterlimit="10"/></g><g transform="translate(-86,-182) scale(1,1)"><path fill="#000000" stroke="none" d="M 703.790482243984 453.83732514237585 L 708 464 L 712.209517756016 453.83732514237585"/></g><g transform="translate(-86,-182) scale(1,1)"><path fill="none" stroke="#000000" d="M 703.790482243984 453.83732514237585 L 708 464 L 712.209517756016 453.83732514237585 L 703.790482243984 453.83732514237585" stroke-miterlimit="10"/></g><g transform="translate(-86,-182) scale(1,1)"><path fill="#ffffff" stroke="none" d="M 368 326.5 C 368 318.4918704 374.4918704 312 382.5 312 C 390.5081296 312 397 318.4918704 397 326.5 C 397 334.5081296 390.5081296 341 382.5 341 C 374.4918704 341 368 334.5081296 368 326.5 Z"/></g><g transform="translate(-86,-182) scale(1,1)"><path fill="none" stroke="#000000" d="M 368 326.5 C 368 318.4918704 374.4918704 312 382.5 312 C 390.5081296 312 397 318.4918704 397 326.5 C 397 334.5081296 390.5081296 341 382.5 341 C 374.4918704 341 368 334.5081296 368 326.5 Z" stroke-miterlimit="10"/></g><g transform="translate(-86,-182) scale(1,1)"><path fill="none" stroke="#000000" d="M 382 312 L 382 341" stroke-miterlimit="10"/></g><g transform="translate(-86,-182) scale(1,1)"><path fill="none" stroke="#000000" d="M 368 326 L 397 326" stroke-miterlimit="10"/></g><g transform="translate(-86,-182) scale(1,1)"><path fill="none" stroke="#000000" d="M 244 272 L 244 320 M 244 320 A 8 8 0 0 0 252 328 L 368 328" stroke-miterlimit="10"/></g><g transform="translate(-86,-182) scale(1,1)"><path fill="#000000" stroke="none" d="M 357.83732514237585 332.209517756016 L 368 328 L 357.83732514237585 323.790482243984"/></g><g transform="translate(-86,-182) scale(1,1)"><path fill="none" stroke="#000000" d="M 357.83732514237585 332.209517756016 L 368 328 L 357.83732514237585 323.790482243984 L 357.83732514237585 332.209517756016" stroke-miterlimit="10"/></g><g transform="translate(-86,-182) scale(1,1)"><path fill="none" stroke="#000000" d="M 320 464 L 360 464 M 360 464 A 8 8 0 0 0 368 456 L 368 341" stroke-miterlimit="10"/></g><g transform="translate(-86,-182) scale(1,1)"><path fill="#000000" stroke="none" d="M 372.209517756016 351.16267485762415 L 368 341 L 363.790482243984 351.16267485762415"/></g><g transform="translate(-86,-182) scale(1,1)"><path fill="none" stroke="#000000" d="M 372.209517756016 351.16267485762415 L 368 341 L 363.790482243984 351.16267485762415 L 372.209517756016 351.16267485762415" stroke-miterlimit="10"/></g><g transform="translate(-86,-182) scale(1,1)"><path fill="none" stroke="#000000" d="M 384 312 L 384 232 M 384 232 A 8 8 0 0 1 392 224 L 432 224" stroke-miterlimit="10"/></g><g transform="translate(-86,-182) scale(1,1)"><path fill="#000000" stroke="none" d="M 421.83732514237585 228.209517756016 L 432 224 L 421.83732514237585 219.790482243984"/></g><g transform="translate(-86,-182) scale(1,1)"><path fill="none" stroke="#000000" d="M 421.83732514237585 228.209517756016 L 432 224 L 421.83732514237585 219.790482243984 L 421.83732514237585 228.209517756016" stroke-miterlimit="10"/></g><g transform="translate(-86,-182) scale(1,1)"><g><path fill="none" stroke="none"/><text fill="#000000" stroke="none" font-family="Arial" font-size="13px" font-style="normal" font-weight="normal" text-decoration="none" x="375.5" y="307.5">主题，关键词，关系</text></g></g><g transform="translate(-86,-182) scale(1,1)"><path fill="none" stroke="#000000" d="M 384 341 L 384 472 M 384 472 A 8 8 0 0 0 392 480 L 432 480" stroke-miterlimit="10"/></g><g transform="translate(-86,-182) scale(1,1)"><path fill="#000000" stroke="none" d="M 421.83732514237585 484.209517756016 L 432 480 L 421.83732514237585 475.790482243984"/></g><g transform="translate(-86,-182) scale(1,1)"><path fill="none" stroke="#000000" d="M 421.83732514237585 484.209517756016 L 432 480 L 421.83732514237585 475.790482243984 L 421.83732514237585 484.209517756016" stroke-miterlimit="10"/></g><g transform="translate(-86,-182) scale(1,1)"><g><path fill="none" stroke="none"/><text fill="#000000" stroke="none" font-family="Arial" font-size="13px" font-style="normal" font-weight="normal" text-decoration="none" x="390.5" y="436.5">主题，关键词</text></g></g></g></svg>