<svg version="1.1" xmlns="http://www.w3.org/2000/svg" xmlns:xlink="http://www.w3.org/1999/xlink" width="539.87890625" height="440"><defs/><g><g transform="translate(-366,-214) scale(1,1)"><rect fill="#C0C0C0" stroke="none" x="567" y="447" width="91.748046875" height="57" opacity="0.2"/></g><g transform="translate(-366,-214) scale(1,1)"><rect fill="#ffffff" stroke="none" x="560" y="440" width="91.748046875" height="57"/></g><g transform="translate(-366,-214) scale(1,1)"><path fill="none" stroke="#000000" d="M 560 440 L 651.748046875 440 L 651.748046875 497 L 560 497 L 560 440 Z Z" stroke-miterlimit="10"/></g><g transform="translate(-366,-214) scale(1,1)"><path fill="none" stroke="#000000" d="M 560 465 L 651.748046875 465" stroke-miterlimit="10"/></g><g transform="translate(-366,-214) scale(1,1)"><path fill="none" stroke="#000000" d="M 560 488 L 651.748046875 488" stroke-miterlimit="10"/></g><g transform="translate(-366,-214) scale(1,1)"><g><path fill="none" stroke="none"/><text fill="#000000" stroke="none" font-family="Arial" font-size="13px" font-style="normal" font-weight="bold" text-decoration="none" x="590.693603515625" y="459.5">Song</text></g></g><g transform="translate(-366,-214) scale(1,1)"><g><path fill="none" stroke="none"/><text fill="#000000" stroke="none" font-family="Arial" font-size="13px" font-style="normal" font-weight="normal" text-decoration="none" x="565" y="482.5">+ReleaseDate</text></g></g><g transform="translate(-366,-214) scale(1,1)"><rect fill="#C0C0C0" stroke="none" x="591" y="231" width="50.919921875" height="44" opacity="0.2"/></g><g transform="translate(-366,-214) scale(1,1)"><rect fill="#ffffff" stroke="none" x="584" y="224" width="50.919921875" height="44"/></g><g transform="translate(-366,-214) scale(1,1)"><path fill="none" stroke="#000000" d="M 584 224 L 634.919921875 224 L 634.919921875 268 L 584 268 L 584 224 Z Z" stroke-miterlimit="10"/></g><g transform="translate(-366,-214) scale(1,1)"><path fill="none" stroke="#000000" d="M 584 249 L 634.919921875 249" stroke-miterlimit="10"/></g><g transform="translate(-366,-214) scale(1,1)"><path fill="none" stroke="#000000" d="M 584 259 L 634.919921875 259" stroke-miterlimit="10"/></g><g transform="translate(-366,-214) scale(1,1)"><g><path fill="none" stroke="none"/><text fill="#000000" stroke="none" font-family="Arial" font-size="13px" font-style="normal" font-weight="bold" text-decoration="none" x="594.2890625" y="243.5">Actor</text></g></g><g transform="translate(-366,-214) scale(1,1)"><rect fill="#C0C0C0" stroke="none" x="383" y="391" width="50.919921875" height="44" opacity="0.2"/></g><g transform="translate(-366,-214) scale(1,1)"><rect fill="#ffffff" stroke="none" x="376" y="384" width="50.919921875" height="44"/></g><g transform="translate(-366,-214) scale(1,1)"><path fill="none" stroke="#000000" d="M 376 384 L 426.919921875 384 L 426.919921875 428 L 376 428 L 376 384 Z Z" stroke-miterlimit="10"/></g><g transform="translate(-366,-214) scale(1,1)"><path fill="none" stroke="#000000" d="M 376 409 L 426.919921875 409" stroke-miterlimit="10"/></g><g transform="translate(-366,-214) scale(1,1)"><path fill="none" stroke="#000000" d="M 376 419 L 426.919921875 419" stroke-miterlimit="10"/></g><g transform="translate(-366,-214) scale(1,1)"><g><path fill="none" stroke="none"/><text fill="#000000" stroke="none" font-family="Arial" font-size="13px" font-style="normal" font-weight="bold" text-decoration="none" x="385.555908203125" y="403.5">Label</text></g></g><g transform="translate(-366,-214) scale(1,1)"><rect fill="#C0C0C0" stroke="none" x="791" y="391" width="91.748046875" height="57" opacity="0.2"/></g><g transform="translate(-366,-214) scale(1,1)"><rect fill="#ffffff" stroke="none" x="784" y="384" width="91.748046875" height="57"/></g><g transform="translate(-366,-214) scale(1,1)"><path fill="none" stroke="#000000" d="M 784 384 L 875.748046875 384 L 875.748046875 441 L 784 441 L 784 384 Z Z" stroke-miterlimit="10"/></g><g transform="translate(-366,-214) scale(1,1)"><path fill="none" stroke="#000000" d="M 784 409 L 875.748046875 409" stroke-miterlimit="10"/></g><g transform="translate(-366,-214) scale(1,1)"><path fill="none" stroke="#000000" d="M 784 432 L 875.748046875 432" stroke-miterlimit="10"/></g><g transform="translate(-366,-214) scale(1,1)"><g><path fill="none" stroke="none"/><text fill="#000000" stroke="none" font-family="Arial" font-size="13px" font-style="normal" font-weight="bold" text-decoration="none" x="811.449951171875" y="403.5">Album</text></g></g><g transform="translate(-366,-214) scale(1,1)"><g><path fill="none" stroke="none"/><text fill="#000000" stroke="none" font-family="Arial" font-size="13px" font-style="normal" font-weight="normal" text-decoration="none" x="789" y="426.5">+ReleaseDate</text></g></g><g transform="translate(-366,-214) scale(1,1)"><rect fill="#C0C0C0" stroke="none" x="455" y="607" width="73.2890625" height="44" opacity="0.2"/></g><g transform="translate(-366,-214) scale(1,1)"><rect fill="#ffffff" stroke="none" x="448" y="600" width="73.2890625" height="44"/></g><g transform="translate(-366,-214) scale(1,1)"><path fill="none" stroke="#000000" d="M 448 600 L 521.2890625 600 L 521.2890625 644 L 448 644 L 448 600 Z Z" stroke-miterlimit="10"/></g><g transform="translate(-366,-214) scale(1,1)"><path fill="none" stroke="#000000" d="M 448 625 L 521.2890625 625" stroke-miterlimit="10"/></g><g transform="translate(-366,-214) scale(1,1)"><path fill="none" stroke="#000000" d="M 448 635 L 521.2890625 635" stroke-miterlimit="10"/></g><g transform="translate(-366,-214) scale(1,1)"><g><path fill="none" stroke="none"/><text fill="#000000" stroke="none" font-family="Arial" font-size="13px" font-style="normal" font-weight="bold" text-decoration="none" x="454.661376953125" y="619.5">Composer</text></g></g><g transform="translate(-366,-214) scale(1,1)"><rect fill="#C0C0C0" stroke="none" x="695" y="607" width="76.91357421875" height="44" opacity="0.2"/></g><g transform="translate(-366,-214) scale(1,1)"><rect fill="#ffffff" stroke="none" x="688" y="600" width="76.91357421875" height="44"/></g><g transform="translate(-366,-214) scale(1,1)"><path fill="none" stroke="#000000" d="M 688 600 L 764.91357421875 600 L 764.91357421875 644 L 688 644 L 688 600 Z Z" stroke-miterlimit="10"/></g><g transform="translate(-366,-214) scale(1,1)"><path fill="none" stroke="#000000" d="M 688 625 L 764.91357421875 625" stroke-miterlimit="10"/></g><g transform="translate(-366,-214) scale(1,1)"><path fill="none" stroke="#000000" d="M 688 635 L 764.91357421875 635" stroke-miterlimit="10"/></g><g transform="translate(-366,-214) scale(1,1)"><g><path fill="none" stroke="none"/><text fill="#000000" stroke="none" font-family="Arial" font-size="13px" font-style="normal" font-weight="bold" text-decoration="none" x="695.7626953125" y="619.5">LyricWriter</text></g></g><g transform="translate(-366,-214) scale(1,1)"><path fill="none" stroke="#000000" d="M 601 269 L 560 384 L 589 439" stroke-miterlimit="10"/></g><g transform="translate(-366,-214) scale(1,1)"><path fill="none" stroke="#000000" d="M 580.5364260003084 431.97376949198616 L 589 439 L 587.9836446701403 428.04705419334755" stroke-miterlimit="10"/></g><g transform="translate(-366,-214) scale(1,1)"><g><path fill="none" stroke="none"/><text fill="#000000" stroke="none" font-family="Arial" font-size="13px" font-style="normal" font-weight="normal" text-decoration="none" x="519.5" y="392.5">+Sing</text></g></g><g transform="translate(-366,-214) scale(1,1)"><path fill="none" stroke="#000000" d="M 612 269 L 624 384 L 612 439" stroke-miterlimit="10"/></g><g transform="translate(-366,-214) scale(1,1)"><path fill="none" stroke="#000000" d="M 610.0535824802155 428.17357589789333 L 612 439 L 618.2791128713411 429.9682370741389" stroke-miterlimit="10"/></g><g transform="translate(-366,-214) scale(1,1)"><g><path fill="none" stroke="none"/><text fill="#000000" stroke="none" font-family="Arial" font-size="13px" font-style="normal" font-weight="normal" text-decoration="none" x="614.5" y="396.5">+RepresentativeSong</text></g></g><g transform="translate(-366,-214) scale(1,1)"><path fill="none" stroke="#000000" d="M 559 454 L 428 414" stroke-miterlimit="10"/></g><g transform="translate(-366,-214) scale(1,1)"><path fill="none" stroke="#000000" d="M 438.94898415350815 412.9418194831565 L 428 414 L 436.4903475612292 420.99385432287016" stroke-miterlimit="10"/></g><g transform="translate(-366,-214) scale(1,1)"><g><path fill="none" stroke="none"/><text fill="#000000" stroke="none" font-family="Arial" font-size="13px" font-style="normal" font-weight="normal" text-decoration="none" x="456.5" y="454.5">+HasLabel</text></g></g><g transform="translate(-366,-214) scale(1,1)"><path fill="none" stroke="#000000" d="M 633 269 L 720 352 L 783 387" stroke-miterlimit="10"/></g><g transform="translate(-366,-214) scale(1,1)"><path fill="none" stroke="#000000" d="M 772.0719012864703 385.7443493689122 L 783 387 L 776.1605463702306 378.38478821814385" stroke-miterlimit="10"/></g><g transform="translate(-366,-214) scale(1,1)"><g><path fill="none" stroke="none"/><text fill="#000000" stroke="none" font-family="Arial" font-size="13px" font-style="normal" font-weight="normal" text-decoration="none" x="687.5" y="347.5">+ActorAlbum</text></g></g><g transform="translate(-366,-214) scale(1,1)"><path fill="none" stroke="#000000" d="M 636 263 L 752 336 L 800 383" stroke-miterlimit="10"/></g><g transform="translate(-366,-214) scale(1,1)"><path fill="none" stroke="#000000" d="M 789.7935798661309 378.8976850375729 L 800 383 L 795.6837458401975 372.8821963832071" stroke-miterlimit="10"/></g><g transform="translate(-366,-214) scale(1,1)"><g><path fill="none" stroke="none"/><text fill="#000000" stroke="none" font-family="Arial" font-size="13px" font-style="normal" font-weight="normal" text-decoration="none" x="764.5" y="327.5">+RepresentativeAlbum</text></g></g><g transform="translate(-366,-214) scale(1,1)"><path fill="none" stroke="#000000" d="M 708 599 L 629 498" stroke-miterlimit="10"/></g><g transform="translate(-366,-214) scale(1,1)"><path fill="none" stroke="#000000" d="M 638.5769121470865 503.4113541491003 L 629 498 L 631.9454943078019 508.5983047362636" stroke-miterlimit="10"/></g><g transform="translate(-366,-214) scale(1,1)"><g><path fill="none" stroke="none"/><text fill="#000000" stroke="none" font-family="Arial" font-size="13px" font-style="normal" font-weight="normal" text-decoration="none" x="674.5" y="567.5">+WriteLyric</text></g></g><g transform="translate(-366,-214) scale(1,1)"><path fill="none" stroke="#000000" d="M 502 599 L 581 498" stroke-miterlimit="10"/></g><g transform="translate(-366,-214) scale(1,1)"><path fill="none" stroke="#000000" d="M 578.0545056921981 508.5983047362636 L 581 498 L 571.4230878529135 503.4113541491003" stroke-miterlimit="10"/></g><g transform="translate(-366,-214) scale(1,1)"><g><path fill="none" stroke="none"/><text fill="#000000" stroke="none" font-family="Arial" font-size="13px" font-style="normal" font-weight="normal" text-decoration="none" x="497.5" y="544.5">+Compose</text></g></g><g transform="translate(-366,-214) scale(1,1)"><path fill="none" stroke="#000000" d="M 783 424 L 653 456" stroke-miterlimit="10"/></g><g transform="translate(-366,-214) scale(1,1)"><path fill="none" stroke="#000000" d="M 661.8619535736415 449.48342276508424 L 653 456 L 663.874263419417 457.6584315135475" stroke-miterlimit="10"/></g><g transform="translate(-366,-214) scale(1,1)"><g><path fill="none" stroke="none"/><text fill="#000000" stroke="none" font-family="Arial" font-size="13px" font-style="normal" font-weight="normal" text-decoration="none" x="683.5" y="460.5">+AlbumSong</text></g></g></g></svg>